<?xml version="1.0" encoding="UTF-8" standalone="no"?>
<svg
   xmlns:dc="http://purl.org/dc/elements/1.1/"
   xmlns:cc="http://creativecommons.org/ns#"
   xmlns:rdf="http://www.w3.org/1999/02/22-rdf-syntax-ns#"
   xmlns:svg="http://www.w3.org/2000/svg"
   xmlns="http://www.w3.org/2000/svg"
   xmlns:sodipodi="http://sodipodi.sourceforge.net/DTD/sodipodi-0.dtd"
   xmlns:inkscape="http://www.inkscape.org/namespaces/inkscape"
   viewBox="0 -256 1800 1800"
   id="svg3037"
   version="1.1"
   inkscape:version="0.48.3.1 r9886"
   width="100%"
   height="100%"
   sodipodi:docname="random_font_awesome.svg">
  <metadata
     id="metadata3047">
    <rdf:RDF>
      <cc:Work
         rdf:about="">
        <dc:format>image/svg+xml</dc:format>
        <dc:type
           rdf:resource="http://purl.org/dc/dcmitype/StillImage" />
      </cc:Work>
    </rdf:RDF>
  </metadata>
  <defs
     id="defs3045" />
  <sodipodi:namedview
     pagecolor="#ffffff"
     bordercolor="#666666"
     borderopacity="1"
     objecttolerance="10"
     gridtolerance="10"
     guidetolerance="10"
     inkscape:pageopacity="0"
     inkscape:pageshadow="2"
     inkscape:window-width="640"
     inkscape:window-height="480"
     id="namedview3043"
     showgrid="false"
     inkscape:zoom="23.8396"
     inkscape:cx="1795.0746"
     inkscape:cy="1360.6358"
     inkscape:window-x="0"
     inkscape:window-y="25"
     inkscape:window-maximized="0"
     inkscape:current-layer="svg3037" />
  <g
     transform="matrix(1,0,0,-1,7.5932203,1338.9831)"
     id="g3039">
    <path
       d="m 666,1055 q -60,-92 -137,-273 -22,45 -37,72.5 -15,27.5 -40.5,63.5 -25.5,36 -51,56.5 -25.5,20.5 -63,35 Q 300,1024 256,1024 H 32 q -14,0 -23,9 -9,9 -9,23 v 192 q 0,14 9,23 9,9 23,9 h 224 q 250,0 410,-225 z M 1792,256 q 0,-14 -9,-23 L 1463,-87 q -9,-9 -23,-9 -13,0 -22.5,9.5 -9.5,9.5 -9.5,22.5 v 192 q -32,0 -85,-0.5 -53,-0.5 -81,-1 -28,-0.5 -73,1 -45,1.5 -71,5 -26,3.5 -64,10.5 -38,7 -63,18.5 -25,11.5 -58,28.5 -33,17 -59,40 -26,23 -55,53.5 -29,30.5 -56,69.5 59,93 136,273 22,-45 37,-72.5 15,-27.5 40.5,-63.5 25.5,-36 51,-56.5 25.5,-20.5 63,-35 Q 1108,384 1152,384 h 256 v 192 q 0,14 9,23 9,9 23,9 12,0 24,-10 l 319,-319 q 9,-9 9,-23 z m 0,896 q 0,-14 -9,-23 L 1463,809 q -9,-9 -23,-9 -13,0 -22.5,9.5 -9.5,9.5 -9.5,22.5 v 192 h -256 q -48,0 -87,-15 -39,-15 -69,-45 Q 966,934 945,902.5 924,871 900,825 868,763 822,654 793,588 772.5,543 752,498 718.5,438 685,378 654.5,338 624,298 580.5,255 537,212 490.5,186.5 444,161 384,144.5 324,128 256,128 H 32 q -14,0 -23,9 -9,9 -9,23 v 192 q 0,14 9,23 9,9 23,9 h 224 q 48,0 87,15 39,15 69,45 30,30 51,61.5 21,31.5 45,77.5 32,62 78,171 29,66 49.5,111 20.5,45 54,105 33.5,60 64,100 30.5,40 74,83 43.5,43 90,68.5 46.5,25.5 106.5,42 60,16.5 128,16.5 h 256 v 192 q 0,14 9,23 9,9 23,9 12,0 24,-10 l 319,-319 q 9,-9 9,-23 z"
       id="path3041"
       inkscape:connector-curvature="0"
       style="fill:currentColor" />
  </g>
</svg>
